<?xml version="1.0" encoding="utf-8"?>
<!-- Generator: Adobe Illustrator 27.0.0, SVG Export Plug-In . SVG Version: 6.00 Build 0)  -->
<svg version="1.1" id="Layer_1" xmlns="http://www.w3.org/2000/svg" xmlns:xlink="http://www.w3.org/1999/xlink" x="0px" y="0px"
	 viewBox="0 0 301 89" style="enable-background:new 0 0 301 89;" xml:space="preserve">
<style type="text/css">
	.st0{fill:#0C2340;}
</style>
<path class="st0" d="M53.9,74.4c-16.4,0-29.8-13.3-29.8-29.8c0-16.4,13.4-29.8,29.8-29.8c16.4,0,29.8,13.4,29.8,29.8
	C83.8,61.1,70.4,74.4,53.9,74.4 M53.9,16.2c-15.7,0-28.4,12.7-28.4,28.4S38.2,73,53.9,73c15.7,0,28.4-12.7,28.4-28.4
	C82.4,29,69.6,16.2,53.9,16.2 M79.2,53.1c0,0-0.1,0.1-0.2,0C79,53.1,79,53.1,79,53c0,0,1-3,1-6.4c0-3.6-1.5-5.9-3.4-5.9
	c-1.2,0-2,0.8-2,2.1c0,2.2,2.7,2.4,2.7,7.3c0,2-0.4,3.9-1.1,5.9c-3.1,10.3-12.8,15.1-22.3,15.1c-4.4,0-7.5-0.9-8.4-1.3
	c0,0-0.1-0.1,0-0.2c0-0.1,0.1-0.1,0.1-0.1c0.4,0.1,3,1,6.4,1c3.6,0,5.8-1.5,5.8-3.3c0-1.2-0.9-2.1-2.1-2.1c-2.2,0-2.4,2.8-7.2,2.8
	c-2.1,0-3.9-0.4-6-1.1c-10.2-3.1-15.1-12.8-15.1-22.4c0-4.7,1.3-8.4,1.3-8.4c0,0,0.1-0.1,0.1,0c0.1,0,0.1,0.1,0.1,0.1
	c-0.1,0.4-1,3.1-1,6.4c0,3.6,1.5,5.8,3.4,5.8c1.1,0,2-0.8,2-2c0-2.2-2.7-2.5-2.7-7.3c0-2.1,0.4-3.9,1.1-6
	c3.1-10.2,12.8-15,22.3-15.1c4.4,0,8.3,1.3,8.4,1.4c0,0,0.1,0.1,0,0.1c0,0.1-0.1,0.1-0.1,0.1c0,0-2.6-1.1-6.4-1.1
	c-3.5,0-5.8,1.5-5.8,3.4c0,1.1,0.8,2,2.1,2c2.2,0,2.4-2.7,7.2-2.7c2.1,0,3.9,0.4,6,1.1c10.3,3.1,15,12.9,15.1,22.3
	C80.6,49.4,79.2,53.1,79.2,53.1 M65,46c-2.8,0-5,2.1-5,4.5c0,2.1,1.2,3.7,2.9,3.7c0.6,0,1.2-0.3,1.2-1.1c0-1.1-1.4-1.3-1.3-2.9
	c0.1-1.1,1.1-1.8,2.1-1.8c2,0,2.9,1.9,2.9,3.9c-0.1,3.1-2.3,5.2-5,5.2c-3.5,0-5.7-3.3-5.7-6.9c0-5.3,3.5-7.4,5.3-7.8
	c0,0,4.8,0.8,4.6-1.2c-0.1-0.9-1.4-1.3-2.4-1.3c-1.1,0-2.2,0.4-2.2,0.4c-0.6-0.3-1-0.9-1.2-1.5c3.4-2.6,5.8-5,5.8-7.8
	c0-1.5-1-2.8-2.9-2.8c-3.4,0-5.9,4.3-5.9,8.2c0,0.7,0,1.3,0.2,1.9c-2.1,1.6-3.7,2.5-6.6,4.3c0-0.4,0.1-1.3,0.3-2.5
	c1-1.1,2.4-2.7,2.4-3.9c0-0.6-0.3-1.1-1-1.1c-1.7,0-2.9,2.5-3.2,4.2c-0.7,0.9-2.2,2.1-3.5,2.1c-1,0-1.3-0.9-1.4-1.2
	c3.1-1.1,7-5.4,7-9.3c0-0.8-0.3-2.6-2.8-2.6c-3.7,0-6.9,5.5-6.9,9.8c-1.3,0-1.8-1.4-1.8-2.5c0-1.1,0.4-2.2,0.4-2.5
	c0-0.3-0.2-0.7-0.7-0.7c-1.2,0-2,1.7-2,3.6c0.1,2.6,1.8,4.3,4.1,4.5c0.3,1.6,1.7,3.1,3.5,3.1c1.1,0,2.4-0.3,3.3-1.2
	c-0.1,0.6-0.2,1.1-0.2,1.6c-3.6,1.9-6.3,3.2-8.7,5.4c-1.9,1.7-3,4-3,5.9c0,2.5,1.6,4.8,4.8,4.8c3.8,0,6.7-3.1,8.1-7.3
	c0.7-2,0.9-4.9,1.1-7.5c3.8-2.1,5.6-3.4,7.6-4.8c0.2,0.4,0.5,0.7,0.8,1C58.1,42.5,54,45,54,51.1c0,4.3,2.9,9.1,8.6,9.1
	c4.7,0,7.9-3.9,7.9-7.6C70.5,49.1,68.6,46,65,46 M42.3,57.6c-1.2,0.1-2.1-0.7-2.1-2.1c0-3.5,4.9-6.9,8.6-8.8
	C48.2,51.7,46.5,57.4,42.3,57.6 M45,38.1c0-2.7,2.7-7.9,4.3-7.4C51.3,31.4,47.7,36.6,45,38.1 M60.6,36.8c0-3.4,2.3-6.7,3.5-6.1
	C65.6,31.5,63.1,34.7,60.6,36.8 M109.1,57c2.5,0,4.7-0.5,6.7-1.6V43.1h-7.4v2.6h4.4v8c-1,0.4-2.4,0.7-3.7,0.7
	c-3.7,0-5.1-1.8-5.1-6.5v-8.3c0-3.1,1.7-4.9,4.6-4.9c2.9,0,4.2,1.3,4.3,4.2h3.1c-0.1-4.7-2.5-6.8-7.4-6.8c-4.9,0-7.7,2.7-7.7,7.6
	v8.1C101,54.2,103.4,57,109.1,57 M265.1,45.6v5.2c0,4,2.2,6.2,6.1,6.2c4.1,0,6-1.8,6.1-5.5h-2.9c-0.1,2.2-1.1,3.2-3.3,3.2
	c-2.1,0-3.1-1.2-3.1-3.7v-1.7h9.4v-3.7c0-4-2.1-6.1-6.1-6.1C267.3,39.4,265.1,41.6,265.1,45.6 M271.3,41.7c2.2,0,3.2,1.2,3.2,3.7
	v1.4h-6.4v-1.4C268.1,42.9,269.1,41.7,271.3,41.7 M256,57c4,0,5.9-1.9,5.9-6.1H259c0,2.7-0.9,3.8-3,3.8c-2.1,0-3.1-1.2-3.1-3.7v-5.5
	c0-2.5,1-3.7,3.1-3.7c2.1,0,3,0.9,3,3.6h2.9c0-4.1-1.8-5.9-5.9-5.9c-4,0-6.1,2.2-6.1,6.2v5.2C249.9,54.8,252.1,57,256,57
	 M238.9,56.9c2,0,3.4-0.8,4.2-2.3v2.1h2.8V44.8c0-3.7-1.9-5.4-5.9-5.4c-3.8,0-5.6,1.7-5.7,5.1h2.9c0-1.8,1-2.8,2.8-2.8
	c2,0,2.9,1,2.9,3.1v1.3h-1.7c-5,0-7.3,1.7-7.3,5.2v0.5C233.9,54.9,235.8,56.9,238.9,56.9 M239.5,54.5c-1.8,0-2.7-0.9-2.7-2.8v-0.5
	c0-2,1.2-2.7,4.5-2.7h1.6V51C242.9,53.3,241.7,54.5,239.5,54.5 M230.5,50.9v-5.6c0-3.9-2-5.9-5.3-5.9c-1.9,0-3.3,0.8-4.2,2.4v-2.1
	h-2.8v23.1h3v-8.1c0.8,1.4,2.2,2.1,4,2.1C228.6,56.8,230.5,54.8,230.5,50.9 M227.6,51c0,2.4-0.9,3.5-3,3.5c-2.3,0-3.3-1.5-3.3-4
	v-4.7c0-2.5,1.1-4,3.3-4c2.1,0,3,1.1,3,3.5V51z M206.2,43.7c0-1.3,0.9-2,2.6-2c1.9,0,2.7,0.9,2.7,3h2.8c0-3.6-1.7-5.2-5.6-5.2
	c-3.5,0-5.4,1.7-5.4,4.7c0,2.8,1.8,3.8,4.1,4.9l1.8,0.9c1.8,0.9,2.4,1.3,2.4,2.7c0,1.5-1,2.2-2.8,2.2c-2.1,0-3-1-3-3.1H203
	c0,3.7,1.8,5.4,5.8,5.4c3.6,0,5.7-1.8,5.7-4.9c0-2.8-1.8-3.8-4.1-4.9l-1.8-0.9C206.8,45.5,206.2,45.1,206.2,43.7 M193.6,57
	c4,0,6.1-2.2,6.1-6.2v-5.2c0-4-2.1-6.2-6.1-6.2c-4,0-6.1,2.2-6.1,6.2v5.2C187.5,54.8,189.6,57,193.6,57 M193.6,54.7
	c-2.2,0-3.2-1.2-3.2-3.7v-5.5c0-2.5,1-3.7,3.2-3.7c2.2,0,3.2,1.2,3.2,3.7V51C196.8,53.5,195.8,54.7,193.6,54.7 M185.4,42.6v-3h-0.3
	c-2.1,0-3.6,0.9-4.4,2.7v-2.6H178v16.9h3V46.4c0-2.2,1.1-3.9,3.8-3.9C185,42.5,185.3,42.6,185.4,42.6 M161.5,45.6v5.2
	c0,4,2.2,6.2,6.1,6.2c4.1,0,6-1.8,6.1-5.5h-2.9c-0.1,2.2-1.1,3.2-3.3,3.2c-2.1,0-3.1-1.2-3.1-3.7v-1.7h9.4v-3.7c0-4-2.1-6.1-6.1-6.1
	C163.7,39.4,161.5,41.6,161.5,45.6 M167.7,41.7c2.2,0,3.2,1.2,3.2,3.7v1.4h-6.4v-1.4C164.5,42.9,165.5,41.7,167.7,41.7 M143.9,56.7
	l2.1-7.4h7.8l2.1,7.4h3.2l-7.2-24.2H148l-7.2,24.2L143.9,56.7L143.9,56.7z M146.7,46.7l3.2-11.4l3.2,11.4H146.7z M120.9,56.7V32.5
	H133v2.7h-9.1v7.9h8.5v2.6h-8.5V54h9.1v2.7H120.9z"/>
</svg>
